<?xml version="1.0" standalone="no"?>
<!DOCTYPE svg PUBLIC "-//W3C//DTD SVG 20010904//EN"
 "http://www.w3.org/TR/2001/REC-SVG-20010904/DTD/svg10.dtd">
<svg version="1.0" xmlns="http://www.w3.org/2000/svg"
 width="32.000000pt" height="32.000000pt" viewBox="0 0 32.000000 32.000000"
 preserveAspectRatio="xMidYMid meet">

<g transform="translate(0.000000,32.000000) scale(0.100000,-0.100000)"
fill="#000000" stroke="none">
<path d="M200 305 c-9 -11 -9 -17 2 -28 11 -12 16 -12 27 0 7 8 10 17 6 21 -3
3 -11 0 -16 -8 -8 -11 -9 -10 -4 8 7 26 3 28 -15 7z"/>
<path d="M284 299 c-11 -18 11 -32 25 -16 9 12 8 16 -3 20 -9 4 -18 1 -22 -4z"/>
<path d="M255 270 c-4 -6 -3 -16 3 -22 6 -6 12 -6 17 2 4 6 3 16 -3 22 -6 6
-12 6 -17 -2z"/>
<path d="M100 244 c-14 -3 -38 -20 -53 -37 -16 -18 -26 -26 -22 -19 3 6 2 12
-4 12 -14 0 -27 -23 -15 -27 5 -2 8 -41 7 -88 -3 -85 -3 -85 22 -85 14 0 25 4
25 9 0 5 -9 7 -20 4 -13 -3 -20 0 -20 8 0 11 28 14 140 14 112 0 140 -3 140
-14 0 -8 -7 -11 -20 -8 -11 3 -20 1 -20 -4 0 -5 11 -9 25 -9 25 0 25 0 22 85
-1 47 2 86 7 88 12 4 -1 27 -15 27 -6 0 -7 -6 -4 -12 4 -7 -6 2 -22 20 -25 28
-35 33 -88 36 -33 3 -71 2 -85 0z m113 -11 c33 -5 41 -12 63 -54 13 -27 24
-60 24 -74 l0 -25 -137 -2 -138 -2 138 -3 c104 -3 137 -7 134 -16 -3 -9 -41
-12 -138 -12 l-134 0 -3 42 c-6 77 3 83 131 85 l112 2 -107 3 c-60 2 -108 7
-108 11 0 40 74 60 163 45z"/>
<path d="M30 130 c0 -11 50 -34 57 -27 2 2 1 12 -3 21 -7 17 -54 23 -54 6z
m37 -6 c-3 -3 -12 -4 -19 -1 -8 3 -5 6 6 6 11 1 17 -2 13 -5z"/>
<path d="M95 122 c3 -8 5 -16 5 -18 0 -2 27 -4 59 -4 53 0 71 8 71 33 0 1 -32
2 -70 2 -54 0 -69 -3 -65 -13z m115 -4 c0 -5 -22 -8 -50 -8 -27 0 -50 3 -50 8
0 4 23 7 50 7 28 0 50 -3 50 -7z"/>
<path d="M236 124 c-4 -9 -5 -19 -3 -21 7 -7 57 16 57 27 0 17 -47 11 -54 -6z
m41 0 c-3 -3 -12 -4 -19 -1 -8 3 -5 6 6 6 11 1 17 -2 13 -5z"/>
</g>
</svg>
