<?xml version="1.0" standalone="no"?>
<!DOCTYPE svg PUBLIC "-//W3C//DTD SVG 20010904//EN"
 "http://www.w3.org/TR/2001/REC-SVG-20010904/DTD/svg10.dtd">
<svg version="1.0" xmlns="http://www.w3.org/2000/svg"
 width="32.000000pt" height="32.000000pt" viewBox="0 0 32.000000 32.000000"
 preserveAspectRatio="xMidYMid meet">

<g transform="translate(0.000000,32.000000) scale(0.100000,-0.100000)"
fill="#000000" stroke="none">
<path d="M136 278 c-6 -26 9 -47 24 -32 10 10 2 54 -10 54 -4 0 -10 -10 -14
-22z m24 -18 c0 -5 -4 -10 -10 -10 -5 0 -10 5 -10 10 0 6 5 10 10 10 6 0 10
-4 10 -10z"/>
<path d="M76 274 c-10 -27 -7 -44 9 -44 9 0 15 9 15 24 0 30 -15 42 -24 20z
m11 -26 c-3 -8 -6 -5 -6 6 -1 11 2 17 5 13 3 -3 4 -12 1 -19z"/>
<path d="M207 283 c-13 -13 -7 -53 8 -53 8 0 15 8 15 18 0 22 -14 44 -23 35z
m10 -35 c-3 -8 -6 -5 -6 6 -1 11 2 17 5 13 3 -3 4 -12 1 -19z"/>
<path d="M84 205 c-4 -8 -12 -15 -20 -15 -8 0 -14 -3 -14 -8 0 -16 32 -52 46
-52 19 0 18 17 -3 29 -14 8 1 10 56 11 67 0 73 -1 55 -14 -24 -18 -10 -35 16
-18 14 9 19 9 23 -1 2 -7 4 3 4 21 0 18 -5 32 -13 32 -6 0 -14 7 -18 15 -3 8
-16 15 -28 14 l-23 0 23 -9 c40 -17 24 -30 -38 -30 -62 0 -78 13 -37 30 l22 9
-23 0 c-12 1 -25 -6 -28 -14z"/>
<path d="M133 143 c9 -2 25 -2 35 0 9 3 1 5 -18 5 -19 0 -27 -2 -17 -5z"/>
<path d="M133 123 c9 -2 25 -2 35 0 9 3 1 5 -18 5 -19 0 -27 -2 -17 -5z"/>
<path d="M60 98 c0 -21 5 -28 20 -28 11 0 20 5 20 10 0 6 23 10 50 10 28 0 50
-4 50 -10 0 -5 9 -10 20 -10 15 0 20 7 20 28 0 15 -4 23 -8 17 -4 -5 -41 -10
-82 -10 -41 0 -78 5 -82 10 -4 6 -8 -2 -8 -17z"/>
</g>
</svg>
