<?xml version="1.0" standalone="no"?>
<!DOCTYPE svg PUBLIC "-//W3C//DTD SVG 20010904//EN"
 "http://www.w3.org/TR/2001/REC-SVG-20010904/DTD/svg10.dtd">
<svg version="1.0" xmlns="http://www.w3.org/2000/svg"
 width="32.000000pt" height="32.000000pt" viewBox="0 0 32.000000 32.000000"
 preserveAspectRatio="xMidYMid meet">

<g transform="translate(0.000000,32.000000) scale(0.100000,-0.100000)"
fill="#000000" stroke="none">
<path d="M110 233 c-16 -6 -30 -23 -30 -35 0 -5 9 1 20 12 33 33 150 23 150
-13 0 -8 -19 -13 -55 -14 -30 -1 -64 -7 -77 -14 -16 -9 -23 -9 -26 0 -2 6 -8
11 -14 11 -6 0 -5 -6 2 -15 7 -9 19 -14 26 -11 7 3 15 -3 17 -12 3 -12 5 -11
6 6 1 20 6 22 67 22 41 0 63 -4 59 -10 -3 -5 -13 -10 -21 -10 -8 0 -14 -7 -14
-15 0 -18 50 -21 51 -2 0 6 5 3 10 -8 7 -16 8 -14 5 12 -4 22 -1 33 10 37 19
7 7 28 -14 24 -9 -2 -26 7 -39 19 -17 18 -33 23 -70 22 -26 0 -55 -3 -63 -6z
m150 -93 c0 -5 -8 -10 -17 -10 -15 0 -16 2 -3 10 19 12 20 12 20 0z"/>
<path d="M31 148 c1 -17 3 -18 6 -6 3 11 11 15 21 12 15 -5 15 -4 2 5 -23 16
-30 13 -29 -11z"/>
<path d="M54 126 c-9 -24 3 -46 26 -46 11 0 20 -4 20 -8 0 -5 -8 -8 -17 -7
-32 4 -52 16 -47 29 3 7 -3 19 -12 27 -16 12 -17 12 -11 -4 4 -10 7 -25 7 -33
0 -8 7 -14 15 -14 8 0 15 -6 15 -13 0 -8 12 -14 30 -14 18 0 30 6 30 14 0 7 7
13 16 13 11 0 15 6 11 20 -3 11 -1 20 4 20 5 0 9 5 9 11 0 8 -5 7 -15 -1 -9
-7 -14 -19 -11 -27 3 -7 0 -13 -7 -13 -7 0 -13 12 -12 28 0 21 -5 28 -23 30
-13 2 -25 -3 -28 -12z m46 -16 c0 -13 -7 -20 -20 -20 -13 0 -20 7 -20 20 0 13
7 20 20 20 13 0 20 -7 20 -20z"/>
<path d="M178 103 c12 -2 30 -2 40 0 9 3 -1 5 -23 4 -22 0 -30 -2 -17 -4z"/>
<path d="M290 94 c0 -6 -30 -11 -67 -12 -74 -3 -101 -12 -36 -12 27 0 43 -5
47 -15 3 -8 16 -15 30 -15 18 0 25 7 29 28 3 15 3 29 1 31 -2 2 -4 0 -4 -5z
m-10 -34 c0 -5 -9 -10 -20 -10 -11 0 -20 5 -20 10 0 6 9 10 20 10 11 0 20 -4
20 -10z"/>
</g>
</svg>
